<?xml version="1.0" encoding="UTF-8"?> <!-- Generator: Adobe Illustrator 18.0.0, SVG Export Plug-In . SVG Version: 6.00 Build 0) --> <svg xmlns="http://www.w3.org/2000/svg" xmlns:xlink="http://www.w3.org/1999/xlink" version="1.1" id="Layer_1" x="0px" y="0px" viewBox="0 0 1080 1296" xml:space="preserve"> <g> <path d="M1040.5,656.3c0.2,273-226.8,494.3-507.3,494.1c-270.7-0.2-491.2-217.8-494.3-507.8C36,373.3,266.5,145.1,541.1,147.2 C816.3,149.3,1041.5,367.2,1040.5,656.3z M539.7,223.8c-232.4,0.5-424,190.8-423.8,421.1c0.2,239.7,186.9,427.9,424.1,427.3 c237-0.6,425.7-189.9,424.2-427.7C962.7,410.9,766.6,223.3,539.7,223.8z"></path> <path d="M859.8,647.3c2,173.5-141.2,319.1-314.5,322.1c-174.4,3-323.3-138.7-325.7-313.8c-2.5-181.9,143.6-323.2,313.7-327.1 C708.1,324.6,860.2,471.2,859.8,647.3z M540.1,888.2c127.9,0.3,237-106.3,237.3-231.9c0.3-139-100.8-243.9-235.9-244.5 C409.3,411.2,301.1,516.5,301,645.8C301,780.5,406.9,887.9,540.1,888.2z"></path> <path d="M664.1,813.7c-40.1-30.4-80.2-60.9-120.7-91.5c-42.8,33.7-85.3,67.1-127.8,100.6c-0.4-0.3-0.8-0.5-1.2-0.8 c4.7-14.7,9.3-29.5,14.1-44.1c11.5-35.4,22.8-70.9,34.7-106.3c2.3-6.8,0.4-10.1-5-14.1c-38.3-28.7-76.4-57.7-114.6-86.7 c-1.4-1-2.7-2.2-5.5-4.5c4-0.2,6.5-0.4,9.1-0.4c46.6,0,93.3-0.2,139.9,0.2c7.5,0.1,10.9-1.9,13.2-9.3 c12.2-39.2,25.1-78.1,37.8-117.2c0.5-1.4,1.1-2.8,2.2-5.6c2,5.5,3.6,9.8,5,14.1c12.3,37.3,24.6,74.6,36.7,112c1.5,4.7,3.8,6,8.6,6 c45.6-0.2,91.3-0.1,136.9-0.2c3.9,0,7.9,0,14.2,0c-5.4,4.4-9,7.3-12.6,10.2c-34.7,27.3-69.2,54.8-104.2,81.5 c-7.1,5.4-7.5,10.2-5,17.6c14.9,44.4,29.4,88.9,44.1,133.4c0.5,1.4,0.8,2.8,1.2,4.1C664.9,813.1,664.5,813.4,664.1,813.7z"></path> </g> </svg> 