<?xml version="1.0" standalone="no"?>
<!DOCTYPE svg PUBLIC "-//W3C//DTD SVG 20010904//EN"
 "http://www.w3.org/TR/2001/REC-SVG-20010904/DTD/svg10.dtd">
<svg version="1.0" xmlns="http://www.w3.org/2000/svg"
 width="900.000000pt" height="900.000000pt" viewBox="0 0 900.000000 900.000000"
 preserveAspectRatio="xMidYMid meet">

<g transform="translate(0.000000,900.000000) scale(0.100000,-0.100000)"
fill="#000000" stroke="none">
<path d="M3077 8728 c-186 -301 -395 -781 -551 -1268 -77 -238 -204 -733 -222
-861 l-6 -45 68 -55 c38 -31 96 -76 129 -101 33 -25 69 -55 79 -67 24 -27 38
-26 89 3 23 13 60 29 82 35 92 23 795 78 869 67 77 -12 197 -129 231 -225 11
-33 12 -41 1 -41 -41 0 -212 76 -291 130 -57 39 -98 50 -179 50 -54 0 -85 -7
-131 -27 -111 -48 -279 -102 -525 -167 -135 -36 -309 -84 -388 -106 -205 -57
-251 -65 -303 -54 -76 16 -81 51 -54 394 37 475 94 862 160 1078 61 205 207
589 375 992 54 129 106 253 115 275 l16 40 -33 -39 c-18 -21 -74 -95 -124
-163 -261 -357 -496 -815 -608 -1184 -95 -316 -246 -891 -316 -1207 -21 -95
-44 -180 -51 -188 -18 -22 26 -82 160 -215 123 -122 211 -179 301 -194 38 -6
45 -4 69 23 91 98 433 230 991 382 187 51 365 50 597 -2 174 -40 255 -102 166
-128 -59 -18 -326 -24 -413 -10 -142 24 -191 23 -235 -3 -22 -12 -56 -45 -75
-72 -19 -28 -78 -93 -130 -145 -368 -368 -1383 -1130 -1507 -1130 -33 0 -85
23 -139 62 -45 32 -46 32 -61 13 -13 -17 -14 -46 -9 -180 23 -621 172 -1525
308 -1863 16 -43 58 -156 93 -252 144 -399 276 -707 406 -943 68 -122 179
-296 202 -315 8 -7 -12 58 -44 145 -165 441 -320 969 -398 1358 -54 270 -134
915 -162 1310 -10 147 -10 181 3 245 20 96 49 158 104 219 24 27 245 205 491
397 615 479 834 655 924 745 66 64 90 81 156 107 107 42 170 58 289 73 106 12
134 9 134 -14 0 -20 -243 -254 -333 -322 -82 -61 -141 -90 -207 -100 -52 -8
-91 -29 -109 -57 -31 -50 -39 -1331 -11 -1778 23 -375 66 -671 176 -1235 142
-722 335 -1274 585 -1673 62 -99 190 -274 196 -268 2 1 -19 50 -46 107 -273
578 -443 1325 -503 2209 -20 294 -17 1459 5 1840 19 325 14 468 -18 516 -14
22 -14 27 4 62 55 107 288 371 411 463 108 82 137 52 59 -62 -22 -33 -50 -81
-60 -105 -49 -109 -30 -395 47 -744 103 -464 329 -1102 443 -1249 23 -30 35
-23 51 34 14 50 28 65 41 44 8 -12 10 -12 18 0 13 21 27 6 41 -44 16 -57 25
-63 50 -33 109 129 323 731 439 1229 54 237 74 385 75 564 1 168 -4 186 -81
300 -73 107 -63 140 24 89 99 -57 385 -371 444 -486 18 -36 18 -40 3 -63 -32
-49 -36 -178 -17 -535 22 -417 25 -1458 5 -1790 -37 -614 -117 -1097 -268
-1607 -68 -234 -176 -517 -256 -677 -16 -32 -28 -60 -25 -62 7 -7 136 172 207
287 283 456 468 1037 639 2009 87 497 103 651 122 1165 11 313 7 1196 -8 1395
-8 114 -22 132 -128 155 -120 27 -213 93 -427 302 -107 104 -123 128 -92 140
27 10 225 -18 309 -45 137 -42 178 -65 256 -143 87 -87 316 -271 904 -729 237
-184 454 -356 483 -384 64 -60 115 -159 133 -256 10 -60 10 -106 -4 -288 -29
-375 -99 -939 -152 -1227 -69 -369 -261 -1021 -434 -1468 -37 -96 -23 -87 62
41 167 253 380 714 536 1162 21 63 58 163 80 222 139 363 253 1000 307 1708
17 228 16 342 -4 362 -9 9 -22 5 -56 -21 -54 -38 -106 -61 -139 -61 -97 0
-754 472 -1272 914 -163 139 -315 290 -365 361 -22 31 -52 59 -80 73 -49 25
-88 26 -230 2 -86 -14 -354 -8 -412 9 -125 38 41 119 322 157 213 28 285 20
605 -72 240 -69 458 -143 603 -205 121 -52 156 -73 213 -127 34 -31 40 -34 79
-27 90 15 178 72 301 194 133 132 178 193 160 215 -7 8 -32 102 -56 210 -102
453 -294 1153 -374 1367 -108 287 -272 604 -451 870 -50 75 -240 329 -246 329
-5 0 0 -11 86 -215 230 -546 383 -956 440 -1185 65 -256 129 -773 145 -1170 7
-173 2 -190 -64 -204 -55 -12 -105 -2 -359 70 -106 30 -272 75 -369 100 -184
47 -385 112 -488 157 -46 20 -77 27 -131 27 -81 0 -122 -11 -179 -50 -79 -54
-250 -130 -291 -130 -20 0 0 57 42 117 53 76 135 140 191 149 72 11 780 -44
868 -67 22 -6 61 -23 87 -37 l47 -27 25 20 c14 11 81 64 150 118 69 54 128
107 131 117 7 21 -22 164 -76 385 -140 562 -322 1063 -550 1515 -94 186 -185
340 -200 340 -4 0 4 -35 17 -77 223 -712 374 -1440 390 -1893 5 -128 3 -158
-9 -174 -12 -17 -35 -21 -148 -30 -157 -11 -604 6 -739 29 -151 26 -166 22
-205 -54 -24 -47 -88 -114 -174 -184 -71 -56 -75 -58 -83 -38 -17 48 -72 114
-121 145 -56 36 -123 64 -132 54 -4 -3 17 -52 45 -108 36 -72 50 -111 48 -133
-5 -48 -27 -40 -73 27 -22 32 -44 59 -50 59 -5 0 -20 -21 -33 -46 -12 -26 -33
-54 -47 -63 -23 -15 -27 -15 -50 0 -14 9 -35 37 -47 63 -13 25 -27 47 -33 47
-5 1 -28 -26 -50 -59 -46 -67 -68 -76 -73 -28 -2 22 12 61 47 132 28 55 51
103 51 106 0 24 -118 -29 -177 -80 -23 -19 -52 -58 -66 -85 l-25 -50 -54 41
c-85 67 -168 151 -190 194 -42 83 -60 88 -213 60 -123 -23 -585 -40 -739 -28
-158 12 -156 10 -156 137 0 407 155 1191 378 1909 22 70 36 127 32 127 -5 0
-29 -33 -53 -72z"/>
</g>
</svg>
